<mxfile host="app.diagrams.net" modified="2023-05-24T16:11:25.731Z" agent="Mozilla/5.0 (X11; Ubuntu; Linux x86_64; rv:109.0) Gecko/20100101 Firefox/113.0" version="21.3.3" etag="wOP_nJns88QcxGtWMPm_" type="github">
  <diagram name="PÃ¡gina-1" id="FI5P6eNtkDEh9v9TOtGo">
    <mxGraphModel>
      <root>
        <mxCell id="0" />
        <mxCell id="1" parent="0" />
      </root>
    </mxGraphModel>
  </diagram>
</mxfile>
